<svg class="marks" width="263" height="255" version="1.1" xmlns="http://www.w3.org/2000/svg" xmlns:xlink="http://www.w3.org/1999/xlink"><g transform="translate(48,12)"><g class="mark-group"><g transform="translate(0,0)"><rect class="background" width="1" height="1" style="fill: none;"></rect><g class="mark-group root"><g transform="translate(0,0)"><rect class="background" width="200" height="200" style="fill: none;"></rect><g class="mark-group"><g transform="translate(0,200)"><rect class="background" width="0" height="0" style="pointer-events: none; fill: none;"></rect><g class="mark-rule" style="pointer-events: none;"><line transform="translate(0.5,-200)" x2="0" y2="200" style="fill: none; stroke: #000; stroke-opacity: 0.15; opacity: 1;"></line><line transform="translate(40.5,-200)" x2="0" y2="200" style="fill: none; stroke: #000; stroke-opacity: 0.15; opacity: 1;"></line><line transform="translate(80.5,-200)" x2="0" y2="200" style="fill: none; stroke: #000; stroke-opacity: 0.15; opacity: 1;"></line><line transform="translate(120.5,-200)" x2="0" y2="200" style="fill: none; stroke: #000; stroke-opacity: 0.15; opacity: 1;"></line><line transform="translate(160.5,-200)" x2="0" y2="200" style="fill: none; stroke: #000; stroke-opacity: 0.15; opacity: 1;"></line><line transform="translate(200.5,-200)" x2="0" y2="200" style="fill: none; stroke: #000; stroke-opacity: 0.15; opacity: 1;"></line></g><g class="mark-rule" style="pointer-events: none;"><line transform="translate(0.5,0)" x2="0" y2="6" style="fill: none; stroke: #000; stroke-width: 1; opacity: 1;"></line><line transform="translate(40.5,0)" x2="0" y2="6" style="fill: none; stroke: #000; stroke-width: 1; opacity: 1;"></line><line transform="translate(80.5,0)" x2="0" y2="6" style="fill: none; stroke: #000; stroke-width: 1; opacity: 1;"></line><line transform="translate(120.5,0)" x2="0" y2="6" style="fill: none; stroke: #000; stroke-width: 1; opacity: 1;"></line><line transform="translate(160.5,0)" x2="0" y2="6" style="fill: none; stroke: #000; stroke-width: 1; opacity: 1;"></line><line transform="translate(200.5,0)" x2="0" y2="6" style="fill: none; stroke: #000; stroke-width: 1; opacity: 1;"></line></g><g class="mark-rule" style="pointer-events: none;"></g><g class="mark-text"><text text-anchor="middle" transform="translate(0.5,19)" style="font: 11px sans-serif; fill: #000; opacity: 1;">0.90</text><text text-anchor="middle" transform="translate(40.5,19)" style="font: 11px sans-serif; fill: #000; opacity: 1;">0.92</text><text text-anchor="middle" transform="translate(80.5,19)" style="font: 11px sans-serif; fill: #000; opacity: 1;">0.94</text><text text-anchor="middle" transform="translate(120.5,19)" style="font: 11px sans-serif; fill: #000; opacity: 1;">0.96</text><text text-anchor="middle" transform="translate(160.5,19)" style="font: 11px sans-serif; fill: #000; opacity: 1;">0.98</text><text text-anchor="middle" transform="translate(200.5,19)" style="font: 11px sans-serif; fill: #000; opacity: 1;">1.0</text></g><g class="mark-path" style="pointer-events: none;"><path transform="translate(0.5,0.5)" d="M0,6V0H200V6" style="fill: none; stroke: #000; stroke-width: 1;"></path></g><g class="mark-text"><text text-anchor="middle" transform="translate(100,35)" style="font: bold 11px sans-serif; fill: #000;">(state)</text></g></g></g><g class="mark-group"><g transform="translate(0,0)"><rect class="background" width="0" height="0" style="pointer-events: none; fill: none;"></rect><g class="mark-rule" style="pointer-events: none;"><line transform="translate(0,200.5)" x2="200" y2="0" style="fill: none; stroke: #000; stroke-opacity: 0.15; opacity: 1;"></line><line transform="translate(0,171.5)" x2="200" y2="0" style="fill: none; stroke: #000; stroke-opacity: 0.15; opacity: 1;"></line><line transform="translate(0,143.5)" x2="200" y2="0" style="fill: none; stroke: #000; stroke-opacity: 0.15; opacity: 1;"></line><line transform="translate(0,114.5)" x2="200" y2="0" style="fill: none; stroke: #000; stroke-opacity: 0.15; opacity: 1;"></line><line transform="translate(0,86.5)" x2="200" y2="0" style="fill: none; stroke: #000; stroke-opacity: 0.15; opacity: 1;"></line><line transform="translate(0,57.5)" x2="200" y2="0" style="fill: none; stroke: #000; stroke-opacity: 0.15; opacity: 1;"></line><line transform="translate(0,29.5)" x2="200" y2="0" style="fill: none; stroke: #000; stroke-opacity: 0.15; opacity: 1;"></line><line transform="translate(0,0.5)" x2="200" y2="0" style="fill: none; stroke: #000; stroke-opacity: 0.15; opacity: 1;"></line></g><g class="mark-rule" style="pointer-events: none;"><line transform="translate(-6,200.5)" x2="6" y2="0" style="fill: none; stroke: #000; stroke-width: 1; opacity: 1;"></line><line transform="translate(-6,171.5)" x2="6" y2="0" style="fill: none; stroke: #000; stroke-width: 1; opacity: 1;"></line><line transform="translate(-6,143.5)" x2="6" y2="0" style="fill: none; stroke: #000; stroke-width: 1; opacity: 1;"></line><line transform="translate(-6,114.5)" x2="6" y2="0" style="fill: none; stroke: #000; stroke-width: 1; opacity: 1;"></line><line transform="translate(-6,86.5)" x2="6" y2="0" style="fill: none; stroke: #000; stroke-width: 1; opacity: 1;"></line><line transform="translate(-6,57.5)" x2="6" y2="0" style="fill: none; stroke: #000; stroke-width: 1; opacity: 1;"></line><line transform="translate(-6,29.5)" x2="6" y2="0" style="fill: none; stroke: #000; stroke-width: 1; opacity: 1;"></line><line transform="translate(-6,0.5)" x2="6" y2="0" style="fill: none; stroke: #000; stroke-width: 1; opacity: 1;"></line></g><g class="mark-rule" style="pointer-events: none;"></g><g class="mark-text"><text text-anchor="end" transform="translate(-9,203.5)" style="font: 11px sans-serif; fill: #000; opacity: 1;">0.0</text><text text-anchor="end" transform="translate(-9,174.5)" style="font: 11px sans-serif; fill: #000; opacity: 1;">2.0</text><text text-anchor="end" transform="translate(-9,146.5)" style="font: 11px sans-serif; fill: #000; opacity: 1;">4.0</text><text text-anchor="end" transform="translate(-9,117.5)" style="font: 11px sans-serif; fill: #000; opacity: 1;">6.0</text><text text-anchor="end" transform="translate(-9,89.5)" style="font: 11px sans-serif; fill: #000; opacity: 1;">8.0</text><text text-anchor="end" transform="translate(-9,60.5)" style="font: 11px sans-serif; fill: #000; opacity: 1;">10</text><text text-anchor="end" transform="translate(-9,32.5)" style="font: 11px sans-serif; fill: #000; opacity: 1;">12</text><text text-anchor="end" transform="translate(-9,3.5)" style="font: 11px sans-serif; fill: #000; opacity: 1;">14</text></g><g class="mark-path" style="pointer-events: none;"><path transform="translate(0.5,0.5)" d="M-6,0H0V200H-6" style="fill: none; stroke: #000; stroke-width: 1;"></path></g><g class="mark-text"><text text-anchor="middle" transform="translate(-36,100) rotate(-90) translate(0,3)" style="font: bold 11px sans-serif; fill: #000;">density</text></g></g></g><g class="mark-line marks"><path d="M200,136L198,114L196,97L194,84L192,76L190,75L188,77L186,81L184,86L182,89L180,87L178,84L176,81L174,78L172,76L170,74L168,75L166,76L164,78L162,78L160,81L158,79L156,76L154,76L152,77L150,79L148,81L146,82L144,82L142,84L140,86L138,81L136,77L134,73L132,70L130,69L128,68L126,69L124,73L122,78L120,80L118,78L116,77L114,71L112,66L110,60L108,54L106,48L104,42L102,36L100,33L98,33L96,32L94,31L92,30L90,31L88,34L86,38L84,41L82,43L80,49L78,54L76,55L74,54L72,50L70,45L68,42L66,39L64,35L62,35L60,42L58,48L56,51L54,55L52,60L50,62L48,61L46,57L44,49L42,43L40,36L38,26L36,16L34,11L32,10L30,11L28,15L26,22L24,32L22,42L20,45L18,47L16,47L14,47L12,47L10,45L8,46L6,57L4,77L2,101L0,125" style="fill: none; stroke: #4682b4; stroke-width: 2;"></path></g></g></g></g></g></g></svg>