<svg class="marks" width="268" height="255" version="1.1" xmlns="http://www.w3.org/2000/svg" xmlns:xlink="http://www.w3.org/1999/xlink"><g transform="translate(58,12)"><g class="mark-group"><g transform="translate(0,0)"><rect class="background" width="1" height="1" style="fill: none;"></rect><g class="mark-group root"><g transform="translate(0,0)"><rect class="background" width="200" height="200" style="fill: none;"></rect><g class="mark-group"><g transform="translate(0,200)"><rect class="background" width="0" height="0" style="pointer-events: none; fill: none;"></rect><g class="mark-rule" style="pointer-events: none;"><line transform="translate(0.5,-200)" x2="0" y2="200" style="fill: none; stroke: #000; stroke-opacity: 0.15; opacity: 1;"></line><line transform="translate(40.5,-200)" x2="0" y2="200" style="fill: none; stroke: #000; stroke-opacity: 0.15; opacity: 1;"></line><line transform="translate(80.5,-200)" x2="0" y2="200" style="fill: none; stroke: #000; stroke-opacity: 0.15; opacity: 1;"></line><line transform="translate(120.5,-200)" x2="0" y2="200" style="fill: none; stroke: #000; stroke-opacity: 0.15; opacity: 1;"></line><line transform="translate(160.5,-200)" x2="0" y2="200" style="fill: none; stroke: #000; stroke-opacity: 0.15; opacity: 1;"></line><line transform="translate(200.5,-200)" x2="0" y2="200" style="fill: none; stroke: #000; stroke-opacity: 0.15; opacity: 1;"></line></g><g class="mark-rule" style="pointer-events: none;"><line transform="translate(0.5,0)" x2="0" y2="6" style="fill: none; stroke: #000; stroke-width: 1; opacity: 1;"></line><line transform="translate(40.5,0)" x2="0" y2="6" style="fill: none; stroke: #000; stroke-width: 1; opacity: 1;"></line><line transform="translate(80.5,0)" x2="0" y2="6" style="fill: none; stroke: #000; stroke-width: 1; opacity: 1;"></line><line transform="translate(120.5,0)" x2="0" y2="6" style="fill: none; stroke: #000; stroke-width: 1; opacity: 1;"></line><line transform="translate(160.5,0)" x2="0" y2="6" style="fill: none; stroke: #000; stroke-width: 1; opacity: 1;"></line><line transform="translate(200.5,0)" x2="0" y2="6" style="fill: none; stroke: #000; stroke-width: 1; opacity: 1;"></line></g><g class="mark-rule" style="pointer-events: none;"></g><g class="mark-text"><text text-anchor="middle" transform="translate(0.5,19)" style="font: 11px sans-serif; fill: #000; opacity: 1;">0</text><text text-anchor="middle" transform="translate(40.5,19)" style="font: 11px sans-serif; fill: #000; opacity: 1;">0.2</text><text text-anchor="middle" transform="translate(80.5,19)" style="font: 11px sans-serif; fill: #000; opacity: 1;">0.4</text><text text-anchor="middle" transform="translate(120.5,19)" style="font: 11px sans-serif; fill: #000; opacity: 1;">0.6</text><text text-anchor="middle" transform="translate(160.5,19)" style="font: 11px sans-serif; fill: #000; opacity: 1;">0.8</text><text text-anchor="middle" transform="translate(200.5,19)" style="font: 11px sans-serif; fill: #000; opacity: 1;">1</text></g><g class="mark-path" style="pointer-events: none;"><path transform="translate(0.5,0.5)" d="M0,6V0H200V6" style="fill: none; stroke: #000; stroke-width: 1;"></path></g><g class="mark-text"><text text-anchor="middle" transform="translate(100,35)" style="font: bold 11px sans-serif; fill: #000;">pCgivenNA</text></g></g></g><g class="mark-group"><g transform="translate(0,0)"><rect class="background" width="0" height="0" style="pointer-events: none; fill: none;"></rect><g class="mark-rule" style="pointer-events: none;"><line transform="translate(0,200.5)" x2="200" y2="0" style="fill: none; stroke: #000; stroke-opacity: 0.15; opacity: 1;"></line><line transform="translate(0,185.5)" x2="200" y2="0" style="fill: none; stroke: #000; stroke-opacity: 0.15; opacity: 1;"></line><line transform="translate(0,169.5)" x2="200" y2="0" style="fill: none; stroke: #000; stroke-opacity: 0.15; opacity: 1;"></line><line transform="translate(0,154.5)" x2="200" y2="0" style="fill: none; stroke: #000; stroke-opacity: 0.15; opacity: 1;"></line><line transform="translate(0,138.5)" x2="200" y2="0" style="fill: none; stroke: #000; stroke-opacity: 0.15; opacity: 1;"></line><line transform="translate(0,123.5)" x2="200" y2="0" style="fill: none; stroke: #000; stroke-opacity: 0.15; opacity: 1;"></line><line transform="translate(0,108.5)" x2="200" y2="0" style="fill: none; stroke: #000; stroke-opacity: 0.15; opacity: 1;"></line><line transform="translate(0,92.5)" x2="200" y2="0" style="fill: none; stroke: #000; stroke-opacity: 0.15; opacity: 1;"></line><line transform="translate(0,77.5)" x2="200" y2="0" style="fill: none; stroke: #000; stroke-opacity: 0.15; opacity: 1;"></line><line transform="translate(0,62.5)" x2="200" y2="0" style="fill: none; stroke: #000; stroke-opacity: 0.15; opacity: 1;"></line><line transform="translate(0,46.5)" x2="200" y2="0" style="fill: none; stroke: #000; stroke-opacity: 0.15; opacity: 1;"></line><line transform="translate(0,31.5)" x2="200" y2="0" style="fill: none; stroke: #000; stroke-opacity: 0.15; opacity: 1;"></line><line transform="translate(0,15.5)" x2="200" y2="0" style="fill: none; stroke: #000; stroke-opacity: 0.15; opacity: 1;"></line><line transform="translate(0,0.5)" x2="200" y2="0" style="fill: none; stroke: #000; stroke-opacity: 0.15; opacity: 1;"></line></g><g class="mark-rule" style="pointer-events: none;"><line transform="translate(-6,200.5)" x2="6" y2="0" style="fill: none; stroke: #000; stroke-width: 1; opacity: 1;"></line><line transform="translate(-6,185.5)" x2="6" y2="0" style="fill: none; stroke: #000; stroke-width: 1; opacity: 1;"></line><line transform="translate(-6,169.5)" x2="6" y2="0" style="fill: none; stroke: #000; stroke-width: 1; opacity: 1;"></line><line transform="translate(-6,154.5)" x2="6" y2="0" style="fill: none; stroke: #000; stroke-width: 1; opacity: 1;"></line><line transform="translate(-6,138.5)" x2="6" y2="0" style="fill: none; stroke: #000; stroke-width: 1; opacity: 1;"></line><line transform="translate(-6,123.5)" x2="6" y2="0" style="fill: none; stroke: #000; stroke-width: 1; opacity: 1;"></line><line transform="translate(-6,108.5)" x2="6" y2="0" style="fill: none; stroke: #000; stroke-width: 1; opacity: 1;"></line><line transform="translate(-6,92.5)" x2="6" y2="0" style="fill: none; stroke: #000; stroke-width: 1; opacity: 1;"></line><line transform="translate(-6,77.5)" x2="6" y2="0" style="fill: none; stroke: #000; stroke-width: 1; opacity: 1;"></line><line transform="translate(-6,62.5)" x2="6" y2="0" style="fill: none; stroke: #000; stroke-width: 1; opacity: 1;"></line><line transform="translate(-6,46.5)" x2="6" y2="0" style="fill: none; stroke: #000; stroke-width: 1; opacity: 1;"></line><line transform="translate(-6,31.5)" x2="6" y2="0" style="fill: none; stroke: #000; stroke-width: 1; opacity: 1;"></line><line transform="translate(-6,15.5)" x2="6" y2="0" style="fill: none; stroke: #000; stroke-width: 1; opacity: 1;"></line><line transform="translate(-6,0.5)" x2="6" y2="0" style="fill: none; stroke: #000; stroke-width: 1; opacity: 1;"></line></g><g class="mark-rule" style="pointer-events: none;"></g><g class="mark-text"><text text-anchor="end" transform="translate(-9,203.5)" style="font: 11px sans-serif; fill: #000; opacity: 1;">0.0</text><text text-anchor="end" transform="translate(-9,188.5)" style="font: 11px sans-serif; fill: #000; opacity: 1;">0.10</text><text text-anchor="end" transform="translate(-9,172.5)" style="font: 11px sans-serif; fill: #000; opacity: 1;">0.20</text><text text-anchor="end" transform="translate(-9,157.5)" style="font: 11px sans-serif; fill: #000; opacity: 1;">0.30</text><text text-anchor="end" transform="translate(-9,141.5)" style="font: 11px sans-serif; fill: #000; opacity: 1;">0.40</text><text text-anchor="end" transform="translate(-9,126.5)" style="font: 11px sans-serif; fill: #000; opacity: 1;">0.50</text><text text-anchor="end" transform="translate(-9,111.5)" style="font: 11px sans-serif; fill: #000; opacity: 1;">0.60</text><text text-anchor="end" transform="translate(-9,95.5)" style="font: 11px sans-serif; fill: #000; opacity: 1;">0.70</text><text text-anchor="end" transform="translate(-9,80.5)" style="font: 11px sans-serif; fill: #000; opacity: 1;">0.80</text><text text-anchor="end" transform="translate(-9,65.5)" style="font: 11px sans-serif; fill: #000; opacity: 1;">0.90</text><text text-anchor="end" transform="translate(-9,49.5)" style="font: 11px sans-serif; fill: #000; opacity: 1;">1.0</text><text text-anchor="end" transform="translate(-9,34.5)" style="font: 11px sans-serif; fill: #000; opacity: 1;">1.1</text><text text-anchor="end" transform="translate(-9,18.5)" style="font: 11px sans-serif; fill: #000; opacity: 1;">1.2</text><text text-anchor="end" transform="translate(-9,3.5)" style="font: 11px sans-serif; fill: #000; opacity: 1;">1.3</text></g><g class="mark-path" style="pointer-events: none;"><path transform="translate(0.5,0.5)" d="M-6,0H0V200H-6" style="fill: none; stroke: #000; stroke-width: 1;"></path></g><g class="mark-text"><text text-anchor="middle" transform="translate(-46,100) rotate(-90) translate(0,3)" style="font: bold 11px sans-serif; fill: #000;">density</text></g></g></g><g class="mark-line marks"><path d="M200,88L198,63L196,31L194,11L192,3L190,9L188,12L186,24L184,27L182,32L180,31L178,39L176,39L174,43L172,40L170,48L168,47L166,50L164,46L162,53L160,52L158,55L156,51L154,57L152,55L150,58L148,54L146,60L144,58L142,61L140,57L138,62L136,60L134,63L132,58L130,64L128,62L126,64L124,59L122,65L120,63L118,65L116,60L114,66L112,64L110,66L108,61L106,66L104,63L102,66L100,60L98,66L96,63L94,66L92,61L90,66L88,64L86,66L84,60L82,65L80,63L78,65L76,59L74,64L72,62L70,64L68,58L66,63L64,60L62,62L60,57L58,61L56,58L54,60L52,54L50,58L48,55L46,57L44,51L42,55L40,52L38,53L36,46L34,50L32,47L30,48L28,40L26,43L24,39L22,39L20,31L18,32L16,27L14,24L12,12L10,9L8,3L6,11L4,31L2,63L0,88" style="fill: none; stroke: #4682b4; stroke-width: 2;"></path></g></g></g></g></g></g></svg>